<svg width="20" height="10" viewBox="0 0 20 10" fill="none" xmlns="http://www.w3.org/2000/svg">
<path d="M19.375 1.24997H0.624985C0.27997 1.24997 0 0.969948 0 0.624986C0 0.279971 0.280024 0 0.624985 0H19.375C19.72 0 20 0.280023 20 0.624986C20 0.969948 19.72 1.24997 19.375 1.24997Z" fill="white"/>
<path d="M0.624985 4.375H19.375C19.72 4.375 20 4.65502 20 4.99999C20 5.34495 19.72 5.62497 19.375 5.62497H0.624985C0.27997 5.62497 0 5.34495 0 4.99999C0 4.65502 0.27997 4.375 0.624985 4.375Z" fill="white"/>
<path d="M0.625006 8.75H13.125C13.47 8.75 13.75 9.03002 13.75 9.37499C13.75 9.72 13.47 9.99997 13.125 9.99997H0.625006C0.279991 9.99997 2.09808e-05 9.71995 2.09808e-05 9.37499C-3.05176e-05 9.02997 0.279991 8.75 0.625006 8.75Z" fill="white"/>
</svg>
