<svg width="20" height="17" viewBox="0 0 20 17" fill="none" xmlns="http://www.w3.org/2000/svg">
<path d="M19.6912 0.463257C19.4469 0.16449 19.081 0 18.6608 0C18.4324 0 18.1903 0.0480652 17.9416 0.143127L1.01199 6.60568C0.113557 6.94854 -0.00744541 7.46307 0.000336566 7.73925C0.00811854 8.01544 0.158113 8.52234 1.07456 8.81393C1.08005 8.81561 1.08554 8.81729 1.09104 8.81881L4.60269 9.82376L6.50181 15.2544C6.76075 15.9947 7.34195 16.4546 8.01884 16.4546C8.44562 16.4546 8.86539 16.2758 9.23283 15.9376L11.4049 13.9377L14.5554 16.4744C14.5557 16.4748 14.5562 16.4749 14.5565 16.4752L14.5864 16.4993C14.5891 16.5015 14.592 16.5037 14.5948 16.5059C14.945 16.7775 15.3272 16.9209 15.7006 16.9211H15.7007C16.4302 16.9211 17.0111 16.3811 17.1804 15.5455L19.9543 1.8486C20.0657 1.29883 19.9723 0.806884 19.6912 0.463257ZM5.77747 9.63287L12.5525 6.17172L8.33393 10.6543C8.26481 10.7277 8.21583 10.8176 8.19172 10.9154L7.37827 14.2104L5.77747 9.63287ZM8.43891 15.0755C8.41083 15.1013 8.3826 15.1244 8.35438 15.1456L9.10908 12.0889L10.4819 13.1944L8.43891 15.0755ZM18.8057 1.61591L16.0318 15.313C16.0051 15.444 15.9198 15.749 15.7006 15.749C15.5922 15.749 15.4561 15.69 15.3168 15.5827L11.7469 12.7083C11.7464 12.7078 11.7458 12.7074 11.7452 12.7071L9.62101 10.9965L15.7216 4.51416C15.9169 4.30664 15.9346 3.9888 15.7636 3.76083C15.5924 3.53287 15.2822 3.46115 15.0284 3.59085L4.99454 8.71688L1.43512 7.69851L18.3596 1.23794C18.5025 1.18332 18.6023 1.17187 18.6608 1.17187C18.6966 1.17187 18.7604 1.17615 18.7841 1.20529C18.8152 1.24329 18.8549 1.37283 18.8057 1.61591Z" fill="white"/>
</svg>
