<svg width="19" height="21" viewBox="0 0 19 21" fill="none" xmlns="http://www.w3.org/2000/svg">
<path d="M18.146 11.5885C18.7427 6.56601 17.8593 3.39517 16.266 1.96101L16.2668 1.96017C13.6952 -0.488993 5.01016 -0.851493 1.9335 2.07017C0.551831 3.49934 0.0651638 5.59684 0.0118305 8.19351C-0.0415028 10.791 -0.104836 15.6568 4.42933 16.9768H4.4335L4.42933 18.9927C4.42933 18.9927 4.3985 19.8093 4.92016 19.9735C5.51683 20.1668 5.78683 19.7877 7.64266 17.571C10.746 17.8402 13.1293 17.2235 13.4002 17.1335C14.0268 16.9235 17.5727 16.4543 18.146 11.5885ZM7.9485 16.1527C7.9485 16.1527 5.98433 18.6018 5.3735 19.2377C5.1735 19.4443 4.95433 19.4252 4.95766 19.0152C4.95766 18.746 4.97266 15.6685 4.97266 15.6685C1.1285 14.5668 1.35516 10.4235 1.39683 8.25601C1.4385 6.08768 1.83516 4.31184 3.00516 3.11601C5.70433 0.585174 13.3185 1.15101 15.2585 2.97434C17.6302 5.07684 16.786 11.0168 16.791 11.2193C16.3035 15.281 13.4302 15.5385 12.9018 15.7143C12.676 15.7893 10.5802 16.3285 7.9485 16.1527Z" fill="white"/>
<path d="M9.03506 3.59186C8.71423 3.59186 8.71423 4.09186 9.03506 4.09602C11.5242 4.11519 13.5742 5.85019 13.5967 9.0327C13.5967 9.36853 14.0884 9.36436 14.0842 9.02853H14.0834C14.0567 5.59936 11.8184 3.61102 9.03506 3.59186Z" fill="white"/>
<path d="M12.3093 8.50518C12.3018 8.83685 12.7926 8.85268 12.7968 8.51685C12.8376 6.62601 11.6718 5.06852 9.48096 4.90435C9.16013 4.88102 9.12679 5.38518 9.44679 5.40852C11.3468 5.55268 12.3476 6.84935 12.3093 8.50518Z" fill="white"/>
<path d="M11.7844 10.656C11.3727 10.4177 10.9535 10.566 10.7802 10.8002L10.4177 11.2694C10.2335 11.5077 9.88936 11.476 9.88936 11.476C7.37769 10.8119 6.70603 8.18352 6.70603 8.18352C6.70603 8.18352 6.67519 7.82769 6.90519 7.63686L7.35853 7.26186C7.58519 7.08186 7.72853 6.64852 7.49769 6.22269C6.88103 5.10852 6.46686 4.72436 6.25603 4.42936C6.03436 4.15186 5.70103 4.08936 5.35436 4.27686H5.34686C4.62603 4.69852 3.83686 5.48769 4.08936 6.30019C4.52019 7.15686 5.31186 9.88769 7.83519 11.951C9.02103 12.9269 10.8977 13.9269 11.6944 14.1577L11.7019 14.1694C12.4869 14.431 13.2502 13.611 13.6577 12.8685V12.8627C13.8385 12.5035 13.7785 12.1635 13.5144 11.941C13.046 11.4844 12.3394 10.9802 11.7844 10.656Z" fill="white"/>
<path d="M9.82422 6.76434C10.6251 6.81101 11.0134 7.22934 11.0551 8.08851C11.0701 8.42434 11.5576 8.40101 11.5426 8.06518C11.4892 6.94351 10.9042 6.31851 9.85089 6.26018C9.53006 6.24101 9.50006 6.74518 9.82422 6.76434Z" fill="white"/>
</svg>
