<svg width="9" height="12" viewBox="0 0 9 12" fill="none" xmlns="http://www.w3.org/2000/svg">
<path d="M0.190805 8.46125L3.05705 11.3281C3.40923 11.6786 3.88585 11.8753 4.38268 11.8753C4.87951 11.8753 5.35613 11.6786 5.70831 11.3281L8.57456 8.46187C8.63425 8.40422 8.68186 8.33525 8.71462 8.259C8.74737 8.18275 8.76462 8.10074 8.76534 8.01775C8.76606 7.93476 8.75024 7.85246 8.71882 7.77565C8.68739 7.69884 8.64098 7.62906 8.5823 7.57038C8.52362 7.5117 8.45384 7.46529 8.37703 7.43386C8.30022 7.40244 8.21792 7.38662 8.13493 7.38734C8.05194 7.38806 7.96993 7.40531 7.89368 7.43806C7.81742 7.47082 7.74846 7.51843 7.6908 7.57812L5.00768 10.26V0.625C5.00768 0.45924 4.94183 0.300269 4.82462 0.183058C4.70741 0.065848 4.54844 0 4.38268 0C4.21692 0 4.05795 0.065848 3.94074 0.183058C3.82353 0.300269 3.75768 0.45924 3.75768 0.625V10.2606L1.07456 7.5775C1.0169 7.51781 0.947935 7.47019 0.871683 7.43744C0.79543 7.40468 0.713418 7.38744 0.630431 7.38672C0.547444 7.386 0.465144 7.40181 0.388334 7.43324C0.311524 7.46466 0.241741 7.51107 0.183058 7.56975C0.124375 7.62844 0.077967 7.69822 0.0465414 7.77503C0.0151159 7.85184 -0.000697537 7.93414 2.35982e-05 8.01713C0.000744733 8.10011 0.0179862 8.18213 0.0507418 8.25838C0.0834974 8.33463 0.131111 8.4036 0.190805 8.46125Z" fill="white"/>
</svg>
