<svg width="20" height="20" viewBox="0 0 20 20" fill="none" xmlns="http://www.w3.org/2000/svg">
<path d="M14.5893 11.9235L14.5818 11.986C12.7493 11.0726 12.5576 10.951 12.321 11.306C12.1568 11.5518 11.6785 12.1093 11.5343 12.2743C11.3885 12.4368 11.2435 12.4493 10.996 12.3368C10.746 12.2118 9.94345 11.9493 8.99345 11.0993C8.25345 10.4368 7.75678 9.62431 7.61012 9.37431C7.36595 8.95264 7.87678 8.89264 8.34178 8.01264C8.42512 7.83764 8.38262 7.70014 8.32095 7.57598C8.25845 7.45098 7.76095 6.22598 7.55262 5.73764C7.35262 5.25098 7.14678 5.31264 6.99262 5.31264C6.51262 5.27098 6.16178 5.27764 5.85262 5.59931C4.50761 7.07764 4.84678 8.60264 5.99762 10.2243C8.25928 13.1843 9.46429 13.7293 11.6676 14.486C12.2626 14.6751 12.8051 14.6485 13.2343 14.5868C13.7126 14.511 14.7068 13.986 14.9143 13.3985C15.1268 12.811 15.1268 12.3235 15.0643 12.211C15.0026 12.0985 14.8393 12.036 14.5893 11.9235Z" fill="white"/>
<path d="M17.1 2.87452C10.6925 -3.31964 0.0883333 1.17286 0.0841667 9.91119C0.0841667 11.6579 0.541667 13.3612 1.41333 14.8653L0 20.0003L5.27917 18.6237C11.8667 22.182 19.9967 17.457 20 9.91619C20 7.26952 18.9667 4.77869 17.0875 2.90702L17.1 2.87452ZM18.335 9.88869C18.33 16.2495 11.3475 20.222 5.825 16.9753L5.525 16.797L2.4 17.6095L3.2375 14.572L3.03833 14.2595C-0.398333 8.78869 3.55 1.63869 10.06 1.63869C12.2717 1.63869 14.3475 2.50119 15.9108 4.06369C17.4733 5.61286 18.335 7.68869 18.335 9.88869Z" fill="white"/>
</svg>
